<?xml version="1.0" encoding="UTF-8"?>
<svg xmlns="http://www.w3.org/2000/svg" xmlns:xlink="http://www.w3.org/1999/xlink" width="16px" height="16px" viewBox="0 0 16 16" version="1.1">
<g id="surface1">
<path style=" stroke:none;fill-rule:nonzero;fill:rgb(90.588235%,43.529412%,31.764706%);fill-opacity:1;" d="M 16 8 C 16 12.417969 12.417969 16 8 16 C 3.582031 16 0 12.417969 0 8 C 0 3.582031 3.582031 0 8 0 C 12.417969 0 16 3.582031 16 8 Z M 16 8 "/>
<path style=" stroke:none;fill-rule:nonzero;fill:rgb(100%,100%,100%);fill-opacity:1;" d="M 11.183594 5.292969 C 11.171875 5.429688 11.140625 5.5625 11.089844 5.6875 C 11.035156 5.8125 10.957031 5.929688 10.859375 6.023438 C 10.753906 6.128906 10.632812 6.210938 10.496094 6.265625 C 10.332031 6.335938 10.160156 6.375 9.984375 6.386719 C 9.796875 6.402344 9.609375 6.398438 9.421875 6.367188 C 9.238281 6.339844 9.058594 6.304688 8.878906 6.265625 C 8.699219 6.230469 8.519531 6.195312 8.339844 6.164062 C 8.164062 6.132812 7.984375 6.121094 7.804688 6.132812 C 7.652344 6.148438 7.503906 6.179688 7.359375 6.226562 C 7.214844 6.277344 7.085938 6.347656 6.96875 6.445312 C 6.851562 6.542969 6.757812 6.664062 6.695312 6.800781 C 6.625 6.964844 6.585938 7.136719 6.59375 7.316406 C 6.589844 7.449219 6.617188 7.582031 6.667969 7.707031 C 6.710938 7.8125 6.769531 7.910156 6.839844 8.003906 C 6.894531 8.074219 6.957031 8.136719 7.027344 8.1875 C 7.085938 8.230469 7.121094 8.25 7.136719 8.246094 C 6.855469 8.332031 6.554688 8.351562 6.257812 8.308594 C 6.019531 8.269531 5.796875 8.171875 5.605469 8.019531 C 5.429688 7.878906 5.296875 7.691406 5.214844 7.476562 C 5.132812 7.253906 5.101562 7.011719 5.128906 6.773438 C 5.148438 6.535156 5.21875 6.304688 5.332031 6.09375 C 5.441406 5.898438 5.589844 5.722656 5.765625 5.582031 C 5.953125 5.4375 6.164062 5.328125 6.390625 5.253906 C 6.644531 5.171875 6.90625 5.128906 7.171875 5.121094 C 7.425781 5.113281 7.679688 5.136719 7.925781 5.1875 C 8.171875 5.234375 8.410156 5.296875 8.644531 5.363281 C 8.882812 5.429688 9.109375 5.492188 9.328125 5.554688 C 9.539062 5.613281 9.757812 5.652344 9.976562 5.671875 C 10.183594 5.6875 10.390625 5.667969 10.59375 5.617188 C 10.8125 5.554688 11.015625 5.441406 11.183594 5.292969 Z M 7.652344 7.195312 C 7.664062 7.171875 7.679688 7.121094 7.699219 7.042969 C 7.726562 6.964844 7.742188 6.886719 7.75 6.804688 C 7.757812 6.71875 7.75 6.632812 7.734375 6.550781 C 7.71875 6.472656 7.667969 6.410156 7.597656 6.371094 C 7.679688 6.378906 7.730469 6.378906 7.75 6.378906 L 7.910156 6.378906 C 8.148438 6.378906 8.382812 6.4375 8.59375 6.546875 C 8.742188 6.632812 8.867188 6.757812 8.953125 6.910156 C 9.027344 7.046875 9.066406 7.199219 9.066406 7.351562 C 9.070312 7.496094 9.046875 7.636719 9.003906 7.769531 L 8.308594 9.828125 C 8.300781 9.851562 8.28125 9.902344 8.261719 9.976562 C 8.238281 10.058594 8.222656 10.136719 8.214844 10.21875 C 8.203125 10.304688 8.210938 10.390625 8.230469 10.472656 C 8.246094 10.546875 8.292969 10.613281 8.363281 10.648438 C 8.28125 10.644531 8.230469 10.644531 8.214844 10.644531 L 8.050781 10.644531 C 7.8125 10.644531 7.578125 10.585938 7.367188 10.472656 C 7.21875 10.386719 7.09375 10.261719 7.007812 10.113281 C 6.933594 9.976562 6.894531 9.824219 6.894531 9.671875 C 6.890625 9.527344 6.914062 9.386719 6.957031 9.253906 Z M 7.652344 7.195312 "/>
</g>
</svg>
